<mxfile host="app.diagrams.net" agent="Mozilla/5.0 (Windows NT 10.0; Win64; x64) AppleWebKit/537.36 (KHTML, like Gecko) Chrome/140.0.0.0 Safari/537.36" version="28.2.7">
  <diagram id="C5RBs43oDa-KdzZeNtuy" name="Page-1">
    <mxGraphModel dx="383" dy="464" grid="1" gridSize="10" guides="1" tooltips="1" connect="1" arrows="1" fold="1" page="1" pageScale="1" pageWidth="827" pageHeight="1169" math="0" shadow="0">
      <root>
        <mxCell id="WIyWlLk6GJQsqaUBKTNV-0" />
        <mxCell id="WIyWlLk6GJQsqaUBKTNV-1" parent="WIyWlLk6GJQsqaUBKTNV-0" />
        <mxCell id="JoBl5TrVzykHaEyNMU22-0" value="Kysely" style="swimlane;fontStyle=0;childLayout=stackLayout;horizontal=1;startSize=26;fillColor=none;horizontalStack=0;resizeParent=1;resizeParentMax=0;resizeLast=0;collapsible=1;marginBottom=0;whiteSpace=wrap;html=1;" parent="WIyWlLk6GJQsqaUBKTNV-1" vertex="1">
          <mxGeometry x="40" y="40" width="180" height="208" as="geometry" />
        </mxCell>
        <mxCell id="JoBl5TrVzykHaEyNMU22-1" value="kyselyid: Long" style="text;strokeColor=none;fillColor=none;align=left;verticalAlign=top;spacingLeft=4;spacingRight=4;overflow=hidden;rotatable=0;points=[[0,0.5],[1,0.5]];portConstraint=eastwest;whiteSpace=wrap;html=1;" parent="JoBl5TrVzykHaEyNMU22-0" vertex="1">
          <mxGeometry y="26" width="180" height="26" as="geometry" />
        </mxCell>
        <mxCell id="joLyJkTegj7OppRMsLIA-0" value="luontipvm: String" style="text;strokeColor=none;fillColor=none;align=left;verticalAlign=top;spacingLeft=4;spacingRight=4;overflow=hidden;rotatable=0;points=[[0,0.5],[1,0.5]];portConstraint=eastwest;whiteSpace=wrap;html=1;" parent="JoBl5TrVzykHaEyNMU22-0" vertex="1">
          <mxGeometry y="52" width="180" height="26" as="geometry" />
        </mxCell>
        <mxCell id="JoBl5TrVzykHaEyNMU22-2" value="alkamispvm: String" style="text;strokeColor=none;fillColor=none;align=left;verticalAlign=top;spacingLeft=4;spacingRight=4;overflow=hidden;rotatable=0;points=[[0,0.5],[1,0.5]];portConstraint=eastwest;whiteSpace=wrap;html=1;" parent="JoBl5TrVzykHaEyNMU22-0" vertex="1">
          <mxGeometry y="78" width="180" height="26" as="geometry" />
        </mxCell>
        <mxCell id="JoBl5TrVzykHaEyNMU22-3" value="loppumispvm: String" style="text;strokeColor=none;fillColor=none;align=left;verticalAlign=top;spacingLeft=4;spacingRight=4;overflow=hidden;rotatable=0;points=[[0,0.5],[1,0.5]];portConstraint=eastwest;whiteSpace=wrap;html=1;" parent="JoBl5TrVzykHaEyNMU22-0" vertex="1">
          <mxGeometry y="104" width="180" height="26" as="geometry" />
        </mxCell>
        <mxCell id="JoBl5TrVzykHaEyNMU22-13" value="kyselynimi: String" style="text;strokeColor=none;fillColor=none;align=left;verticalAlign=top;spacingLeft=4;spacingRight=4;overflow=hidden;rotatable=0;points=[[0,0.5],[1,0.5]];portConstraint=eastwest;whiteSpace=wrap;html=1;" parent="JoBl5TrVzykHaEyNMU22-0" vertex="1">
          <mxGeometry y="130" width="180" height="26" as="geometry" />
        </mxCell>
        <mxCell id="JoBl5TrVzykHaEyNMU22-14" value="kyselykuvaus: String" style="text;strokeColor=none;fillColor=none;align=left;verticalAlign=top;spacingLeft=4;spacingRight=4;overflow=hidden;rotatable=0;points=[[0,0.5],[1,0.5]];portConstraint=eastwest;whiteSpace=wrap;html=1;" parent="JoBl5TrVzykHaEyNMU22-0" vertex="1">
          <mxGeometry y="156" width="180" height="26" as="geometry" />
        </mxCell>
        <mxCell id="q2erpa_-rk3ymN-rz5S8-0" value="kysymykset: List&amp;lt;Kysymys&amp;gt;" style="text;strokeColor=none;fillColor=none;align=left;verticalAlign=top;spacingLeft=4;spacingRight=4;overflow=hidden;rotatable=0;points=[[0,0.5],[1,0.5]];portConstraint=eastwest;whiteSpace=wrap;html=1;" vertex="1" parent="JoBl5TrVzykHaEyNMU22-0">
          <mxGeometry y="182" width="180" height="26" as="geometry" />
        </mxCell>
        <mxCell id="JoBl5TrVzykHaEyNMU22-4" value="Kysymys" style="swimlane;fontStyle=0;childLayout=stackLayout;horizontal=1;startSize=26;fillColor=none;horizontalStack=0;resizeParent=1;resizeParentMax=0;resizeLast=0;collapsible=1;marginBottom=0;whiteSpace=wrap;html=1;" parent="WIyWlLk6GJQsqaUBKTNV-1" vertex="1">
          <mxGeometry x="350" y="65" width="140" height="104" as="geometry" />
        </mxCell>
        <mxCell id="JoBl5TrVzykHaEyNMU22-12" value="kysymysid: Long" style="text;strokeColor=none;fillColor=none;align=left;verticalAlign=top;spacingLeft=4;spacingRight=4;overflow=hidden;rotatable=0;points=[[0,0.5],[1,0.5]];portConstraint=eastwest;whiteSpace=wrap;html=1;" parent="JoBl5TrVzykHaEyNMU22-4" vertex="1">
          <mxGeometry y="26" width="140" height="26" as="geometry" />
        </mxCell>
        <mxCell id="joLyJkTegj7OppRMsLIA-3" value="kysely: Kysely" style="text;strokeColor=none;fillColor=none;align=left;verticalAlign=top;spacingLeft=4;spacingRight=4;overflow=hidden;rotatable=0;points=[[0,0.5],[1,0.5]];portConstraint=eastwest;whiteSpace=wrap;html=1;" parent="JoBl5TrVzykHaEyNMU22-4" vertex="1">
          <mxGeometry y="52" width="140" height="26" as="geometry" />
        </mxCell>
        <mxCell id="joLyJkTegj7OppRMsLIA-2" value="kysymysteksti: String" style="text;strokeColor=none;fillColor=none;align=left;verticalAlign=top;spacingLeft=4;spacingRight=4;overflow=hidden;rotatable=0;points=[[0,0.5],[1,0.5]];portConstraint=eastwest;whiteSpace=wrap;html=1;" parent="JoBl5TrVzykHaEyNMU22-4" vertex="1">
          <mxGeometry y="78" width="140" height="26" as="geometry" />
        </mxCell>
        <mxCell id="JoBl5TrVzykHaEyNMU22-8" value="" style="endArrow=none;html=1;edgeStyle=orthogonalEdgeStyle;rounded=0;entryX=0.003;entryY=0.928;entryDx=0;entryDy=0;entryPerimeter=0;" parent="WIyWlLk6GJQsqaUBKTNV-1" edge="1">
          <mxGeometry relative="1" as="geometry">
            <mxPoint x="220" y="91" as="sourcePoint" />
            <mxPoint x="350.4200000000001" y="91.12800000000004" as="targetPoint" />
            <Array as="points">
              <mxPoint x="221" y="91" />
            </Array>
          </mxGeometry>
        </mxCell>
        <mxCell id="JoBl5TrVzykHaEyNMU22-9" value="1" style="edgeLabel;resizable=0;html=1;align=left;verticalAlign=bottom;" parent="JoBl5TrVzykHaEyNMU22-8" connectable="0" vertex="1">
          <mxGeometry x="-1" relative="1" as="geometry" />
        </mxCell>
        <mxCell id="JoBl5TrVzykHaEyNMU22-10" value="0..*" style="edgeLabel;resizable=0;html=1;align=right;verticalAlign=bottom;" parent="JoBl5TrVzykHaEyNMU22-8" connectable="0" vertex="1">
          <mxGeometry x="1" relative="1" as="geometry">
            <mxPoint x="-3" as="offset" />
          </mxGeometry>
        </mxCell>
        <mxCell id="JoBl5TrVzykHaEyNMU22-11" value="sisältää" style="edgeLabel;html=1;align=center;verticalAlign=middle;resizable=0;points=[];" parent="JoBl5TrVzykHaEyNMU22-8" vertex="1" connectable="0">
          <mxGeometry x="-0.0305" y="1" relative="1" as="geometry">
            <mxPoint as="offset" />
          </mxGeometry>
        </mxCell>
        <mxCell id="q2erpa_-rk3ymN-rz5S8-1" value="Kysymys &lt;b&gt;many to one&lt;/b&gt; kysely" style="text;html=1;whiteSpace=wrap;strokeColor=none;fillColor=none;align=center;verticalAlign=middle;rounded=0;" vertex="1" parent="WIyWlLk6GJQsqaUBKTNV-1">
          <mxGeometry x="40" y="260" width="170" height="30" as="geometry" />
        </mxCell>
        <mxCell id="q2erpa_-rk3ymN-rz5S8-2" value="Kysely &lt;b&gt;one to many&lt;/b&gt; kysymys" style="text;html=1;whiteSpace=wrap;strokeColor=none;fillColor=none;align=center;verticalAlign=middle;rounded=0;" vertex="1" parent="WIyWlLk6GJQsqaUBKTNV-1">
          <mxGeometry x="40" y="290" width="170" height="30" as="geometry" />
        </mxCell>
        <mxCell id="q2erpa_-rk3ymN-rz5S8-5" value="«interface»&lt;br&gt;&lt;b&gt;Kysymys&lt;/b&gt;&lt;b&gt;Repository&lt;/b&gt;" style="html=1;whiteSpace=wrap;" vertex="1" parent="WIyWlLk6GJQsqaUBKTNV-1">
          <mxGeometry x="355" y="270" width="135" height="50" as="geometry" />
        </mxCell>
        <mxCell id="q2erpa_-rk3ymN-rz5S8-6" value="«Interface»&lt;br&gt;&lt;b&gt;KyselyRepository&lt;/b&gt;" style="html=1;whiteSpace=wrap;" vertex="1" parent="WIyWlLk6GJQsqaUBKTNV-1">
          <mxGeometry x="355" y="210" width="135" height="50" as="geometry" />
        </mxCell>
        <mxCell id="q2erpa_-rk3ymN-rz5S8-7" value="KysymysController" style="html=1;whiteSpace=wrap;" vertex="1" parent="WIyWlLk6GJQsqaUBKTNV-1">
          <mxGeometry x="170" y="360" width="110" height="40" as="geometry" />
        </mxCell>
        <mxCell id="q2erpa_-rk3ymN-rz5S8-8" value="KyselyController" style="html=1;whiteSpace=wrap;" vertex="1" parent="WIyWlLk6GJQsqaUBKTNV-1">
          <mxGeometry x="40" y="360" width="110" height="40" as="geometry" />
        </mxCell>
        <mxCell id="q2erpa_-rk3ymN-rz5S8-9" value="kyselylist.html" style="text;html=1;whiteSpace=wrap;strokeColor=none;fillColor=none;align=left;verticalAlign=middle;rounded=0;" vertex="1" parent="WIyWlLk6GJQsqaUBKTNV-1">
          <mxGeometry x="40" y="440" width="120" height="30" as="geometry" />
        </mxCell>
        <mxCell id="q2erpa_-rk3ymN-rz5S8-10" value="addnewkysely.html" style="text;html=1;whiteSpace=wrap;strokeColor=none;fillColor=none;align=left;verticalAlign=middle;rounded=0;" vertex="1" parent="WIyWlLk6GJQsqaUBKTNV-1">
          <mxGeometry x="40" y="480" width="120" height="30" as="geometry" />
        </mxCell>
        <mxCell id="q2erpa_-rk3ymN-rz5S8-11" value="answerform.html" style="text;html=1;whiteSpace=wrap;strokeColor=none;fillColor=none;align=left;verticalAlign=middle;rounded=0;" vertex="1" parent="WIyWlLk6GJQsqaUBKTNV-1">
          <mxGeometry x="40" y="560" width="120" height="30" as="geometry" />
        </mxCell>
        <mxCell id="q2erpa_-rk3ymN-rz5S8-12" value="addnewkysymys.html" style="text;html=1;whiteSpace=wrap;strokeColor=none;fillColor=none;align=left;verticalAlign=middle;rounded=0;" vertex="1" parent="WIyWlLk6GJQsqaUBKTNV-1">
          <mxGeometry x="40" y="520" width="120" height="30" as="geometry" />
        </mxCell>
        <mxCell id="q2erpa_-rk3ymN-rz5S8-13" value="kyselylist.html" style="text;html=1;whiteSpace=wrap;strokeColor=none;fillColor=none;align=center;verticalAlign=middle;rounded=0;" vertex="1" parent="WIyWlLk6GJQsqaUBKTNV-1">
          <mxGeometry x="170" y="380" width="120" height="30" as="geometry" />
        </mxCell>
        <mxCell id="q2erpa_-rk3ymN-rz5S8-14" value="(kyselynkysymykset.html)" style="text;html=1;whiteSpace=wrap;strokeColor=none;fillColor=none;align=left;verticalAlign=middle;rounded=0;" vertex="1" parent="WIyWlLk6GJQsqaUBKTNV-1">
          <mxGeometry x="200" y="440" width="150" height="30" as="geometry" />
        </mxCell>
      </root>
    </mxGraphModel>
  </diagram>
</mxfile>
